<?xml version="1.0" encoding="utf-8"?>
<!-- Generator: Adobe Illustrator 27.5.0, SVG Export Plug-In . SVG Version: 6.00 Build 0)  -->
<svg version="1.1" id="Layer_1" xmlns="http://www.w3.org/2000/svg" xmlns:xlink="http://www.w3.org/1999/xlink" x="0px" y="0px"
	 viewBox="0 0 4000 4000" style="enable-background:new 0 0 4000 4000;" xml:space="preserve">
<g>
	<g>
		<rect style="fill:#FEEBCD;" width="4000" height="4000"/>
	</g>
	<g>
		<g style="opacity:0.2;">
			<ellipse style="fill:#000069;" cx="1999.608" cy="3297.825" rx="1088.202" ry="102.175"/>
		</g>
		<g>
			<g>
				<path style="fill:#FFD07D;" d="M1594.473,2829.324c-41.523,23.892-107.049,48.553-174.332,48.553
					c-54.651,0-110.399-16.258-155.383-62.505c-48.609-50.037-64.427-117.1-79.696-182.022
					c-12.962-55.2-24.716-105.237-53.387-144.233c-0.055-0.055-0.055-0.055-0.11-0.165c-13.072-17.741-29.66-33.229-51.465-45.807
					c-64.922-37.624-169.28,32.845-200.697,60.473c-33.943,30.263-85.902,27.243-116.221-6.756
					c-22.3-24.991-26.474-59.868-13.621-88.539c4.614-10.326,11.424-19.828,20.377-27.847
					c77.554-69.206,247.602-163.951,392.715-79.916c54.101,31.307,90.956,71.183,117.101,113.75
					c37.404,60.747,52.947,126.932,65.745,181.308c10.106,43.061,20.597,87.605,37.404,104.852
					c31.143,32.076,114.244-5.273,129.293-13.951c39.437-22.684,89.803-9.173,112.542,30.264
					c5.822,10.051,9.228,20.816,10.436,31.636C1638.852,2780.111,1623.803,2812.407,1594.473,2829.324z"/>
			</g>
			<g>
				<path style="fill:#D69967;" d="M1279.752,2414.309c-1.264,40.095-11.645,81.838-46.138,95.954
					c-48.499,19.883-83.761-3.35-101.941-21.146c-0.055-0.055-0.055-0.055-0.11-0.165c-13.072-17.741-29.66-33.229-51.465-45.807
					c-64.922-37.624-169.28,32.845-200.697,60.473c-33.943,30.263-85.902,27.243-116.221-6.756
					c-22.3-24.991-26.474-59.868-13.621-88.539c4.614-10.326,11.424-19.828,20.377-27.847
					c77.554-69.206,247.602-163.951,392.715-79.916C1216.752,2331.867,1253.608,2371.742,1279.752,2414.309z"/>
			</g>
			<g style="opacity:0.2;">
				<path style="fill:#000069;" d="M1594.461,2829.328c-41.523,23.893-107.049,48.554-174.332,48.554
					c-54.651,0-110.399-16.258-155.384-62.505c-48.609-50.037-64.427-117.1-79.696-182.022
					c-18.895-80.41-35.207-149.836-104.962-190.206c-64.922-37.624-169.28,32.845-200.697,60.473
					c-33.943,30.264-85.902,27.243-116.221-6.756c-22.3-24.991-26.474-59.869-13.621-88.539
					c9.612,26.254,31.582,48.115,81.563,23.728c94.911-46.412,168.73-118.803,297.915-60.198
					c129.183,58.605,132.312,320.174,189.821,386.069c68.547,78.543,198.719,49.598,316.314-9.502
					C1638.84,2780.115,1623.791,2812.411,1594.461,2829.328z"/>
			</g>
			<g>
				<path style="fill:#000069;" d="M1420.142,2899.879c-68.926,0-126.509-23.284-171.162-69.207
					c-52.842-54.358-69.336-124.453-85.288-192.241c-18.491-78.598-33.081-140.63-94.614-176.255
					c-49.302-28.55-140.933,27.83-175.171,57.935c-20.679,18.448-47.441,27.764-75.259,26.167
					c-27.778-1.614-53.296-13.96-71.856-34.765c-18.555-20.794-27.886-47.6-26.265-75.481c1.621-27.844,13.965-53.398,34.761-71.958
					c81.978-73.149,262.344-172.844,418.364-82.524c139.512,80.779,170.542,212.715,193.203,309.051
					c8.559,36.391,19.204,81.655,31.772,94.582c16.753,17.236,80.318-4.854,102.607-17.686
					c24.146-13.916,52.275-17.583,79.19-10.344c26.924,7.244,49.409,24.534,63.32,48.691c13.911,24.15,17.588,52.278,10.342,79.194
					c-7.241,26.919-24.531,49.404-48.687,63.318C1584.425,2860.44,1509.063,2899.879,1420.142,2899.879z M1037.003,2410.489
					c18.984,0,37.402,3.997,54.092,13.662c77.944,45.127,96.118,122.373,115.357,204.153
					c14.595,62.029,29.673,126.104,74.033,171.738c36.064,37.09,83.052,55.896,139.658,55.896
					c78.018,0,144.736-34.946,163.325-45.657c13.984-8.057,23.999-21.077,28.188-36.66c4.194-15.583,2.07-31.865-5.986-45.847
					c-8.052-13.987-21.074-23.997-36.66-28.191c-15.571-4.189-31.865-2.065-45.845,5.989c-1.064,0.615-108.55,59.092-156.04,10.239
					c-21.05-21.653-31.729-67.058-43.037-115.132c-20.83-88.564-49.351-209.829-172.451-281.104
					c-134.277-77.744-293.935,12.002-367.09,77.283c-12.056,10.759-19.214,25.576-20.151,41.724
					c-0.942,16.14,4.453,31.653,15.186,43.677c10.757,12.063,25.537,19.219,41.616,20.151c16.011,0.955,31.543-4.458,43.574-15.195
					C893.79,2461.71,969.024,2410.489,1037.003,2410.489z"/>
			</g>
			<g>
				<path style="fill:#7F7F93;" d="M2697.907,3220.45c-7.085,88.265-151.868,102.435-229.532,102.435
					c-77.664,0-229.478-21.201-264.794-95.35c-10.327-21.75-20.103-49.872-30.319-80.685
					c-24.606-74.094-51.904-163.512-96.833-215.911h-166.478c-45.698,53.277-73.106,144.783-98.042,219.591
					c-9.777,29.33-19.169,56.133-29.111,77.005c-35.317,74.149-187.13,95.35-264.794,95.35
					c-77.664,0-222.447-14.171-229.532-102.435c-0.823-10.491-0.329-19.938,1.263-28.451c11.48-62.944,79.971-73.929,79.971-73.929
					l28.506-95.844l78.598-264.19l19.993-67.228c-7.47-7.909-13.84-15.928-19.279-23.892c-40.37-59.649-26.639-117.32-26.639-117.32
					s-151.813-123.582-103.534-317.797c26.199-105.511,128.58-208.77,274.461-275.285c0-0.055,0-0.055,0-0.055
					c37.953-17.301,78.872-32.131,122.153-43.885c76.731-20.762,160.876-31.856,249.25-29.824c80.74,0,156.152,13.951,223.71,38.118
					c0.055,0,0.055,0,0.055,0c56.573,20.212,107.709,47.62,151.923,79.971c88.759,64.812,149.78,149.506,171.312,236.288
					c30.977,124.625-13.402,222.282-49.213,276.328c-19.993,30.209-37.294,46.741-37.294,46.741s33.504,42.622-5.328,91.78
					l26.419,73.105l115.288,319.39l26.584,73.6c0,0,75.357,12.083,81.29,83.541
					C2698.401,3207.487,2698.456,3213.749,2697.907,3220.45z"/>
			</g>
			<g>
				<path style="fill:#000069;" d="M2468.385,3344.864c-9.526,0-233.833-1.226-284.629-107.874
					c-10.313-21.719-19.985-48.972-31.338-83.218l-5.488-16.602c-21.44-65.012-45.581-138.223-80.952-184.253h-145.557
					c-35.361,46.006-59.478,119.165-80.894,184.124c-2.28,6.921-4.531,13.748-6.763,20.442
					c-10.859,32.563-20.137,58.542-30.122,79.507c-50.796,106.648-275.103,107.874-284.629,107.874
					c-72.637,0-242.544-11.951-251.431-122.649c-6.055-76.006,47.388-111.374,85.718-122.636l119.961-403.281
					c-46.357-55.068-47.314-112.537-44.814-138.154c-34.468-32.351-145.728-153.34-101.411-331.638
					c27.847-112.122,134.458-220.215,285.313-289.353c0.444-0.239,0.898-0.466,1.362-0.676
					c39.648-18.076,81.875-33.247,125.508-45.095c82.349-22.28,168.237-32.534,255.264-30.593
					c79.883,0.029,157.285,13.191,230.064,39.119c0.278,0.088,0.557,0.181,0.835,0.281c57.266,20.459,110.259,48.359,157.505,82.93
					c92.881,67.822,156.694,156.157,179.663,248.725c42.515,171.023-47.026,293.076-80.718,331.546
					c9.839,22.29,14.58,56.635-7.881,91.931l160.322,444.021c38.379,10.991,92.642,46.319,86.543,122.864c0,0.002,0,0.007,0,0.012
					C2710.928,3332.913,2541.021,3344.864,2468.385,3344.864z M1909.962,2908.978h166.475c6.411,0,12.505,2.801,16.68,7.668
					c44.453,51.841,71.597,134.146,95.542,206.763l5.464,16.526c10.845,32.715,19.98,58.523,29.316,78.184
					c28.726,60.317,165.493,82.805,244.946,82.805c97.178,0,202.754-21.594,207.632-82.212l0,0
					c5.356-67.256-60.02-78.494-62.808-78.941c-7.891-1.262-14.478-6.711-17.192-14.231l-168.291-466.096
					c-2.578-7.146-1.284-15.117,3.423-21.079c26.743-33.85,7.427-61.721,5.137-64.788c-6.987-8.894-5.928-21.438,2.251-29.255
					c5.083-4.905,124.849-122.957,80.366-301.889c-20.488-82.586-78.359-162.078-162.944-223.843
					c-43.638-31.929-92.612-57.744-145.596-76.753c-0.278-0.085-0.557-0.178-0.83-0.276
					c-68.32-24.441-141.099-36.833-216.309-36.833c-0.171,0-0.337-0.003-0.508-0.005c-82.905-1.919-164.668,7.873-243.003,29.067
					c-40.835,11.089-80.356,25.242-117.461,42.068c-0.43,0.232-0.869,0.449-1.313,0.654
					c-139.492,63.601-237.529,161.016-262.256,260.588c-44.399,178.621,94.673,294.316,96.084,295.464
					c6.538,5.323,9.453,13.919,7.5,22.122c-0.547,2.454-13.55,63.985,40.493,121.016c5.4,5.701,7.349,13.85,5.112,21.377
					l-127.095,427.26c-2.407,8.098-9.248,14.099-17.588,15.432c-6.875,1.177-68.018,13.55-62.808,78.941
					c4.868,60.613,110.449,82.212,207.632,82.212c79.453,0,216.221-22.488,244.961-82.83c9.019-18.94,17.759-43.484,28.106-74.507
					c2.212-6.646,4.448-13.428,6.714-20.303c23.926-72.568,51.04-154.817,95.493-206.641
					C1897.462,2911.778,1903.551,2908.978,1909.962,2908.978z M2697.916,3220.458h0.049H2697.916z"/>
			</g>
			<g>
				<path style="fill:#FFFFFF;" d="M2587.727,3044.469c-150.22-31.088-258.203-0.659-326.969,35.427
					c-51.08,26.803-80.63,56.738-89.857,66.954c-24.607-74.094-51.905-163.512-96.834-215.911h-166.478
					c-45.698,53.277-73.105,144.783-98.041,219.591c-22.904-19.828-46.576-36.69-70.469-51.08
					c-166.533-100.129-343.227-77.225-343.227-77.225l76.017-255.457l22.573-75.961c-6.921-7.305-12.907-14.72-18.015-22.08
					c-41.908-60.253-27.902-119.133-27.902-119.133s-2.253-1.813-6.097-5.383c-27.792-25.65-139.839-141.762-97.437-312.414
					c6.701-26.968,18.401-53.826,34.493-79.916c24.826-40.15,60.088-78.653,103.918-113.311
					c67.998-53.827,156.592-98.426,258.203-125.998c24.771,100.568,67.503,184.933,92.329,228.708
					c11.754,20.652,19.499,32.296,19.499,32.296c8.349-9.173,17.576-18.4,27.463-27.682
					c117.704-110.29,329.441-222.721,333.67-225.028c0.055,0,0.055,0,0.055,0c93.867,33.559,172.684,86.782,229.971,149.561
					c46.467,51.025,78.763,108.422,93.263,166.698c30.373,122.154-11.699,218.437-47.071,273.088l-0.055,0.055
					c-20.872,32.186-39.382,49.927-39.382,49.927s33.504,42.622-5.328,91.78l23.124,63.988L2587.727,3044.469z"/>
			</g>
			<g style="opacity:0.2;">
				<path style="fill:#000069;" d="M2697.907,3220.45c-7.085,88.265-151.868,102.435-229.532,102.435
					c-77.664,0-229.478-21.201-264.794-95.35c-10.327-21.75-20.103-49.872-30.319-80.685
					c-24.606-74.094-51.904-163.512-96.833-215.911h-166.478c-45.698,53.277-73.106,144.783-98.042,219.591
					c-9.777,29.33-19.169,56.133-29.111,77.005c-35.317,74.149-187.13,95.35-264.794,95.35
					c-77.664,0-222.447-14.171-229.532-102.435c-0.823-10.491-0.329-19.938,1.263-28.451
					c136.764,77.884,386.124,11.534,450.716-78.158c3.57-4.943,6.756-9.722,9.612-14.39c57.067-92.714-9.612-139.071-9.612-139.071
					s-28.781,94.911-150.055,12.578c-121.275-82.333-51.19-144.398-51.19-144.398c-19.279-14.006-38.723-36.91-56.353-61.791
					c-2.033-2.911-4.064-5.822-6.042-8.733l19.993-67.228c-7.47-7.909-13.84-15.928-19.279-23.892
					c3.295,0.659,6.591,1.263,9.887,1.812c159.008,27.407,311.425-57.451,311.425-57.451
					c232.883,26.144,562.928-60.143,692.167-97.822c3.735-1.154,7.305-2.197,10.711-3.186
					c-20.872,32.186-39.382,49.927-39.382,49.927s33.504,42.622-5.328,91.78l23.124,63.988c-1.757,3.076-3.515,6.097-5.328,9.117
					c-45.706,76.27-109.264,134.772-160.379,173.691c-55.07,41.93-73.658,116.84-43.614,179.195c0.31,0.643,0.621,1.286,0.935,1.93
					c36.086,74.094,97.822,153.461,196.577,152.033c99.415-1.428,178.122-16.588,229.642-30.319
					C2698.401,3207.487,2698.456,3213.749,2697.907,3220.45z"/>
			</g>
			<g style="opacity:0.2;">
				<path style="fill:#000069;" d="M1759.153,1915.044c24.771,100.568,67.503,184.933,92.33,228.708
					c-140.224-16.203-262.487-52.893-350.533-102.71C1568.948,1987.216,1657.542,1942.616,1759.153,1915.044z"/>
			</g>
			<g style="opacity:0.2;">
				<path style="fill:#000069;" d="M2444.702,2072.899c-117.539,49.652-275.01,80.081-448.024,80.081
					c-39.437,0-78.104-1.593-115.672-4.614c117.704-110.29,329.441-222.721,333.67-225.028c0.055,0,0.055,0,0.055,0
					C2308.597,1956.897,2387.415,2010.119,2444.702,2072.899z"/>
			</g>
			<g>
				<path style="fill:#000069;" d="M1909.962,2952.918c-154.106,0-263.442-68.303-328.027-125.603
					c-69.805-61.936-103.12-123.564-104.502-126.157c-5.718-10.703-1.67-24.014,9.033-29.727
					c10.698-5.706,23.999-1.675,29.712,9.009l0,0c1.23,2.285,125.933,228.538,393.784,228.538
					c270.034,0,376.983-55.354,520.171-269.219c6.748-10.085,20.391-12.783,30.479-6.033c10.083,6.75,12.783,20.398,6.035,30.481
					c-79.155,118.225-143.896,183.728-223.467,226.091C2160.738,2934.19,2061.085,2952.918,1909.962,2952.918z"/>
			</g>
			<g>
				<g>
					<path style="fill:#FFFFFF;" d="M1757.778,2670.822l-192.783,194.14c-12.272,12.358-12.121,32.349,0.337,44.521l55.819,54.538
						c13.406,13.099,35.234,11.587,46.707-3.234l147.921-191.091c0,0,61.202,28.247,94.157-7.062c0,0,25.718,21.185,54.053-4.708
						l171.607,179.797c12.875,13.489,34.504,13.179,46.986-0.674l55.715-61.833c13.175-14.622,10.177-37.554-6.313-48.298
						l-231.475-150.822c0,0-20.969-125.365-117.856-73.389C1882.654,2602.706,1758.626,2553.118,1757.778,2670.822z"/>
				</g>
				<g>
					<path style="fill:#000069;" d="M1643.072,2994.92c-13.872,0-27.29-5.425-37.275-15.183l-55.82-54.541
						c-10.244-10.012-15.947-23.416-16.055-37.739s5.391-27.81,15.483-37.974l186.704-188.02
						c2.07-35.12,14.727-60.705,37.685-76.133c36.694-24.651,86.211-13.154,107.383-6.426c29.277-13.467,56.045-14.431,79.668-2.832
						c38.774,19.036,54.16,65.625,59.268,86.573l223.862,145.864c13.252,8.633,22.021,22.578,24.072,38.257
						c2.051,15.678-2.847,31.409-13.428,43.156l-55.713,61.833c-10.034,11.131-24.38,17.637-39.355,17.852
						c-14.937,0.158-29.502-5.879-39.849-16.714l-161.582-169.297c-15.781,4.285-31.162,3.743-41.436,2.498
						c-30.591,23.489-70.913,16.475-93.33,9.705l-138.125,178.435c-9.302,12.017-23.33,19.507-38.486,20.557
						C1645.518,2994.876,1644.293,2994.92,1643.072,2994.92z M1828.507,2614.266c-11.089,0-21.978,1.977-30.273,7.58
						c-12.09,8.169-18.311,24.697-18.486,49.133c-0.039,5.745-2.329,11.245-6.377,15.322l-192.783,194.141
						c-2.397,2.412-2.734,5.222-2.724,6.682c0.01,1.463,0.391,4.268,2.827,6.646l55.815,54.538c2.612,2.554,5.63,2.737,7.207,2.649
						c1.568-0.11,4.531-0.725,6.773-3.621l147.92-191.089c6.265-8.093,17.28-10.784,26.582-6.501
						c0.4,0.186,47.622,20.684,68.892-2.104c5.479-5.876,13.735-8.286,21.504-6.294c6.113,1.487,25.19,3.931,38.535-2.947
						c8.677-4.477,19.238-2.698,25.967,4.355l171.606,179.797c2.642,2.769,5.859,3.103,7.432,3.118
						c1.641-0.024,4.78-0.488,7.344-3.333l55.708-61.831c2.705-2.998,2.729-6.328,2.505-8.047c-0.225-1.719-1.108-4.932-4.487-7.136
						l-231.475-150.823c-5.151-3.357-8.662-8.721-9.678-14.785c-2.402-13.923-13.828-52.725-37.437-64.241
						c-12.534-6.104-28.799-3.901-48.364,6.59c-5.728,3.073-12.52,3.45-18.54,1.04
						C1865.948,2619.737,1846.949,2614.266,1828.507,2614.266z M1757.779,2670.821h0.049H1757.779z"/>
				</g>
				<g>
					<path style="fill:#000069;" d="M1815.772,2791.666c-5.322,0-10.659-1.922-14.883-5.816
						c-65.723-60.569-65.313-105.942-65.049-110.918l43.877,2.324c0,0,0.034-0.256,0.024-0.754
						c0.005,0.305,1.128,31.148,50.923,77.039c8.926,8.222,9.492,22.121,1.27,31.042
						C1827.603,2789.283,1821.695,2791.666,1815.772,2791.666z"/>
				</g>
				<g>
					<path style="fill:#000069;" d="M1909.932,2784.603c-5.313,0-10.64-1.914-14.858-5.791
						c-40.249-36.97-60.586-75.418-60.449-114.273c0.171-47.595,31.929-76.894,33.281-78.12c8.994-8.14,22.886-7.456,31.03,1.541
						c8.106,8.95,7.461,22.751-1.406,30.913c-1.035,0.977-19.136,18.548-18.96,46.445c0.156,25.803,15.713,53.101,46.231,81.135
						c8.935,8.208,9.526,22.107,1.318,31.042C1921.783,2782.21,1915.865,2784.603,1909.932,2784.603z"/>
				</g>
				<g>
					<path style="fill:#000069;" d="M1964.005,2776.517c-5.693,0-11.318-2.607-14.961-7.539c-6.104-8.257-4.36-19.895,3.896-26.001
						c30.093-22.248,29.009-65.744,28.994-66.181c-0.342-10.229,7.651-18.85,17.876-19.236c10.264-0.303,18.848,7.529,19.272,17.757
						c0.108,2.573,2.114,63.432-44.043,97.559C1971.719,2775.33,1967.843,2776.517,1964.005,2776.517z"/>
				</g>
			</g>
			<g>
				<path style="fill:#000069;" d="M1811.92,3172.508c-5.22,0-10.337-1.86-14.38-5.361
					c-172.764-149.597-394.292-123.411-396.519-123.122c-7.402,0.927-14.727-1.914-19.531-7.571
					c-4.805-5.662-6.44-13.367-4.326-20.486l95.098-319.67c-46.357-55.068-47.314-112.537-44.814-138.154
					c-34.468-32.351-145.728-153.34-101.411-331.638c36.113-145.464,197.91-277.012,412.188-335.127
					c5.718-1.555,11.802-0.728,16.899,2.273c5.098,3.003,8.77,7.932,10.186,13.677c25.566,103.801,71.309,190.742,94.482,230.625
					c108.794-105.908,305.342-214.16,345.816-235.93l0.781-0.42c5.435-2.966,12.163-3.501,17.998-1.414
					c172.476,61.685,301.67,188.765,337.163,331.648c42.515,171.028-47.026,293.081-80.718,331.55
					c9.839,22.29,14.58,56.635-7.881,91.931l137.813,381.699c2.7,7.483,1.147,15.84-4.063,21.851
					c-5.21,6.011-13.257,8.73-21.055,7.124c-248.281-51.372-373.491,70.62-396.074,95.598c-5.239,5.801-13.193,8.364-20.815,6.77
					c-7.651-1.609-13.872-7.158-16.333-14.575l-5.493-16.614c-21.44-65.012-45.581-138.223-80.952-184.253h-145.557
					c-35.361,46.008-59.478,119.165-80.894,184.124c-2.28,6.921-4.531,13.748-6.763,20.442c-2.319,6.958-7.959,12.302-15.034,14.241
					C1815.816,3172.252,1813.863,3172.508,1811.92,3172.508z M1446.217,2997.84c75.776,0,223.14,14.905,354.844,115.547
					c23.145-70.042,49.785-147.263,92.226-196.743c4.175-4.865,10.264-7.666,16.675-7.666h166.475c6.411,0,12.505,2.801,16.68,7.668
					c41.138,47.976,67.451,122.041,90.127,190.374c52.715-44.641,174.722-120.259,373.286-90.82l-128.804-356.756
					c-2.578-7.146-1.284-15.117,3.423-21.079c26.743-33.85,7.427-61.721,5.137-64.788c-6.987-8.894-5.928-21.438,2.251-29.255
					c5.083-4.905,124.849-122.957,80.366-301.889c-30.889-124.363-148.218-240.325-300.195-297.527
					c-47.866,26.157-253.501,141.592-346.694,243.484c-4.561,4.983-11.196,7.569-17.881,7.078
					c-6.733-0.515-12.856-4.094-16.602-9.709c-3.008-4.507-70.684-106.883-109.121-245.872
					c-185.781,55.996-329.053,173.66-359.727,297.212c-44.399,178.623,94.673,294.319,96.084,295.466
					c6.538,5.323,9.453,13.919,7.5,22.122c-0.547,2.454-13.55,63.985,40.493,121.016c5.4,5.701,7.349,13.85,5.112,21.377
					l-89.556,301.047C1433.717,2997.95,1439.698,2997.84,1446.217,2997.84z"/>
			</g>
			<g>
				<path style="fill:#000069;" d="M1740.445,2535.104c-4.521,0-9.082-1.392-12.988-4.26l-118.638-87.112
					c-4.922-3.616-8.12-9.116-8.823-15.183c-0.698-6.067,1.152-12.151,5.122-16.794l107.974-126.426
					c-78.828-126.438-111.533-316.816-112.935-325.156c-0.2-1.204-0.303-2.429-0.303-3.65c0-8.606,5.024-16.477,12.856-20.047
					c39.648-18.076,81.875-33.247,125.508-45.095c82.339-22.278,168.213-32.534,255.254-30.593
					c79.893,0.027,157.29,13.188,230.068,39.119c0.283,0.088,0.562,0.181,0.84,0.281c57.266,20.459,110.259,48.359,157.505,82.93
					c6.982,5.107,10.317,13.84,8.516,22.302s-8.403,15.081-16.86,16.904c-234.653,50.583-612.427,500.354-616.216,504.89
					C1752.994,2532.398,1746.754,2535.104,1740.445,2535.104z M1653.887,2422.308l83.071,60.998
					c66.523-77.485,358.496-407.061,581.03-490.137c-33.467-20.459-69.507-37.656-107.627-51.333
					c-0.278-0.085-0.557-0.178-0.83-0.276c-68.32-24.441-141.099-36.833-216.309-36.833c-0.171,0-0.337-0.003-0.508-0.005
					c-82.876-1.899-164.668,7.871-243.003,29.067c-35.63,9.673-70.249,21.68-103.145,35.759
					c9.98,51.001,44.468,205.725,112.065,305.22c5.561,8.189,4.961,19.087-1.47,26.614L1653.887,2422.308z"/>
			</g>
			<g>
				<path style="fill:#000069;" d="M1582.808,2752.875c-6.357,0-13.022-0.535-19.966-1.748c-0.977-0.171-1.938-0.408-2.881-0.708
					c-9.805-3.118-19.438-6.294-28.794-9.468c-0.83-0.281-1.646-0.613-2.437-0.991c-15.957-7.646-31.768-18.804-46.992-33.164
					c-70.444-66.409-53.159-157.649-52.388-161.502c0.215-1.086,0.518-2.156,0.893-3.198c1.455-3.999,36.558-98.484,119.941-148.982
					c62.124-37.651,125.2-15.867,159.268,1.987c11.719-23.438,34.927-48.726,75.747-57.393
					c18.237-25.429,38.618-40.503,60.674-44.846c17.998-3.538,36.357,0.002,54.717,10.534c12.28-2.336,32.603-3.459,54.243,6.929
					c27.007,12.971,46.973,39.375,59.336,78.479c0.215,0.671,0.391,1.353,0.537,2.041c0.371,1.726,38.345,174.854,134.492,269.6
					c6.118,6.028,8.159,15.066,5.234,23.139c-2.925,8.071-10.288,13.699-18.848,14.404
					c-124.346,10.283-240.264-5.266-323.486-42.759c-2.705,5.164-6.318,10.435-11.143,15.386
					c-11.772,12.08-27.602,19.272-47.168,21.46c-15.454,23.174-48.955,49.421-102.207,38.081
					C1638.756,2739.422,1614.644,2752.875,1582.808,2752.875z M1571.778,2708.067c34.966,5.437,58.12-16.606,59.102-17.559
					c5.718-5.549,14.116-7.705,21.763-5.41c50.991,15.327,66.894-21.167,67.539-22.732c3.413-8.183,11.411-13.516,20.278-13.516
					c13.506,0,23.276-2.996,29.033-8.904c6.382-6.548,6.675-15.547,6.675-15.632c-0.2-7.866,3.818-15.239,10.542-19.331
					c6.719-4.096,15.122-4.272,22.012-0.481c66.631,36.66,168.394,55.43,278.506,52.205
					c-79.673-101.56-111.914-240.459-115.249-255.594c-8.55-26.541-20.713-43.757-36.167-51.177
					c-15.874-7.629-30.854-2.458-30.996-2.402c-6.807,2.634-14.487,1.716-20.488-2.461c-11.294-7.869-21.084-10.857-29.966-9.099
					c-11.997,2.361-25.058,14.014-37.778,33.699c-3.476,5.386-9.136,8.982-15.488,9.846c-50.137,6.821-57.051,47.038-57.676,51.604
					c-1.06,7.766-6.196,14.497-13.447,17.471s-15.557,1.978-21.768-2.815c-2.847-2.173-71.694-53.613-135.249-15.085
					c-64.448,39.031-96.025,112.908-100.791,124.817c-1.714,11.006-8.906,73.479,39.717,119.316
					c11.543,10.886,23.213,19.275,34.702,24.954C1554.796,2702.557,1563.219,2705.333,1571.778,2708.067z"/>
			</g>
			<g>
				<g>
					<path style="fill:#FFFFFF;" d="M2545.929,2390.476c-9.831,47.785-34.328,109.576-92.219,169.718
						c-41.194,42.787-110.62,75.028-191.195,95.075h-0.165c-36.141,9.008-74.534,15.544-113.585,19.444
						c-77.225-69.37-117.101-145.277-137.643-205.146c-10.765-31.307-16.258-58.275-19.059-77.609
						c0.384,1.154,0.768,2.307,1.153,3.46c0,0,47.181,11.205,93.922,6.536c27.463-2.691,54.76-10.875,72.226-30.044l0.055-0.055
						c47.126-51.794,49.433-136.489,28.287-218.876l362.506,150.879C2550.213,2303.859,2556.53,2339.121,2545.929,2390.476z"/>
				</g>
				<g>
					<path style="fill:#7F7F93;" d="M2148.766,2674.713c-4.999,0.494-9.997,0.989-14.994,1.373
						c-123.088,10.161-250.898-5.712-335.648-52.344c0,0,1.208,47.071-57.671,47.071c0,0-23.563,56.518-94.141,35.317
						c0,0-31.582,31.747-79.696,23.343c-8.899-1.538-18.401-4.504-28.397-9.337c-13.072-6.261-26.968-15.708-41.414-29.33
						c-26.474-24.991-38.777-54.211-44.104-79.531c-0.55-2.472-0.989-4.888-1.373-7.305c-5.163-30.868-0.44-54.376-0.44-54.376
						s32.955-90.627,110.674-137.698c77.664-47.071,160.052,16.478,160.052,16.478s7.086-61.186,76.51-70.634
						c24.991-40.15,55.914-58.001,98.755-30.703c0,0,45.918-17.741,78.488,30.154c6.206,9.063,11.864,20.487,16.697,34.767
						c0.933,6.591,2.197,14.061,3.9,22.3c0.385,1.867,0.769,3.79,1.208,5.767c3.186,14.61,7.69,31.307,13.951,49.542
						C2031.665,2529.437,2071.541,2605.343,2148.766,2674.713z"/>
				</g>
				<g style="opacity:0.6;">
					<path style="fill:#FFFFFF;" d="M1998.655,2421.783c-0.494-0.604-0.933-1.153-1.483-1.758
						c-52.289-63.658-121.219-62.285-121.219-62.285c-30.758-24.606-85.299,56.134-85.299,56.134
						c-44.929-4.119-73.16,61.626-73.16,61.626s-81.776-74.698-161.59-8.129c-39.996,33.36-79.971,100.403-103.204,143.904
						c-0.55-2.472-0.989-4.888-1.373-7.305c-5.163-30.868-0.44-54.376-0.44-54.376s32.955-90.627,110.674-137.698
						c77.664-47.071,160.052,16.478,160.052,16.478s7.086-61.186,76.51-70.634c24.991-40.15,55.914-58.001,98.755-30.703
						c0,0,45.918-17.741,78.488,30.154l20.597,57.067L1998.655,2421.783z"/>
				</g>
				<g style="opacity:0.2;">
					<path style="fill:#000069;" d="M2545.929,2390.476c-9.831,47.785-34.328,109.576-92.219,169.718
						c-41.194,42.787-110.62,75.028-191.195,95.075h-0.165c-36.141,9.008-74.534,15.544-113.585,19.444
						c-4.999,0.494-9.997,0.989-14.994,1.373c-123.088,10.161-250.898-5.712-335.648-52.344c0,0,1.208,47.071-57.671,47.071
						c0,0-23.563,56.518-94.141,35.317c0,0-31.582,31.747-79.696,23.343c-8.899-1.538-18.401-4.504-28.397-9.337
						c-13.072-6.261-26.968-15.708-41.414-29.33c-29.055-27.408-41.029-59.924-45.477-86.837l3.13-13.896
						c54.834,67.739,79.496,40.17,90.429,7.71c5.351-15.886,25.409-20.63,37.241-8.755c40.771,40.92,55.943,5.763,61.437-32.37
						c2.323-16.126,20.129-24.552,34.062-16.106c25.86,15.675,50.577-6.501,50.577-6.501c209.759,97.382,267.211-3.9,282.919-64.482
						c5.657-21.86,5.877-38.393,5.877-38.393l70.139-29.22l72.226-30.044l0.055-0.055l33.998-14.116
						C2354.35,2471.93,2482.216,2428.319,2545.929,2390.476z"/>
				</g>
				<g>
					<path style="fill:#000069;" d="M2277.529,2671.326c-3.621,3.548-10.045,6.085-15.125,5.923c0,0,3.464-0.282,3.464-0.282
						c-0.333,0.054-128.604,20.82-128.91,20.869c-7.63,1.235-14.991-1.764-19.679-7.233c-9.437-11.006-17.218-21.448-25.593-32.848
						c-27.718-38.623-52.004-79.636-72.144-122.7c-20.442-43.018-36.346-88.275-47.697-134.564
						c-2.979-11.621,4.028-23.456,15.649-26.434c3.685-0.94,7.32-0.884,10.801-0.006c37.998,9.274,80.893,14.784,118.943,4.473
						c12.112-3.392,22.695-9.116,30.82-16.978c5.78-6.245,15.559-6.638,21.812-0.938c58.23,57.047,96.783,134.043,109.698,214.414
						c0.38,3.004,2.043,12.185,2.443,15.177c0.396,3.994,1.678,21.336,2.054,25.54
						C2286.017,2629.909,2282.333,2656.381,2277.529,2671.326L2277.529,2671.326z M2247.517,2639.231
						c-2.139-4.177-4.182-7.192-5.034-9.957c-1.033-2.982-0.188-4.625-0.676-12.03l-0.671-18.301
						c0.017-2.319-0.359-6.844-0.713-9.127c-0.84-6.618-1.89-16.186-2.69-22.768c-10.946-65.035-39.377-127.857-82.888-177.611
						c-1.708-2.174-4.051-4.294-5.854-6.315c0,0,21.802-0.931,21.802-0.931c-22.868,26.214-57.194,35.576-89.612,38.997
						c-31.543,2.929-61.85,1.152-93.02-4.382c0,0,26.445-26.441,26.445-26.441c6.345,24.611,13.174,49.17,22.407,72.992
						c26.74,71.315,64.935,139.34,113.264,198.229c0,0-20.007-7.179-20.007-7.179l128.579-20.815l3.467-0.283
						C2257.33,2633.146,2251.018,2635.687,2247.517,2639.231L2247.517,2639.231z"/>
				</g>
				<g>
					<path style="fill:#000069;" d="M2571.848,2299.995c15.884,130.081-65.06,275.359-182.287,332.438
						c-147.007,73.574-377.514,92.115-544.417,35.857c-19.597-6.972-38.926-15.185-57.603-25.29l32.554-19.812
						c-0.799,44.885-37.344,70.263-79.634,69.603c0,0.001,20.276-13.514,20.276-13.514c-1.029,2.313-1.459,3.184-2.459,5.023
						c-14.959,28.128-44.885,47.252-76.853,48.39c-13.833,0.552-28.192-1.75-41.428-5.511c0,0,21.897-5.545,21.897-5.545
						c-68.426,61.636-158.892,23.788-205.127-44.566c-25.494-38.311-34.628-86.584-27.417-131.774
						c10.787-30.895,27.978-58.657,47.426-84.8c67.705-86.905,148.863-116.125,247.469-56.846c3.586,2.273,6.66,4.266,10.793,7.339
						l-35.242,14.868c3.708-23.705,15.324-45.764,33.154-61.988c17.273-15.99,39.376-24.52,62.217-27.886
						c0,0-15.689,10.158-15.689,10.158c5.881-9.336,12.539-18.604,20.977-27.312c30.217-32.58,72.159-34.209,108.235-10.309
						c0-0.001-19.732-1.962-19.732-1.962c31.959-11.519,69.205-1.185,92.243,23.011c3.415,3.871,6.76,7.831,9.964,11.861
						c1.654,2.538,6.392,9.878,8.083,12.566c5.739,9.533,11.128,24.284,14.922,34.808c0,0-15.881-14.753-15.881-14.753
						c42.793,9.34,93.905,16.13,133.987-3.619c64.445-42.697,59.423-146.456,43.838-214.463c-3.351-14.912,18.621-21.024,23.2-5.955
						c19.53,71.127,27.289,155.889-16.574,220.426c-40.764,61.983-130.287,57.528-194.583,46.37
						c-7.195-1.49-12.744-6.534-15.195-12.92c-0.582-1.865-5.074-13.531-5.735-15.565c-2.012-4.24-4.058-8.445-6.145-12.555
						c-1.15-1.67-4.305-6.707-5.381-8.397c-1.464-1.894-4.575-5.334-6.047-7.216c-11.53-12.11-29.463-17.371-44.842-12.618
						c0,0-19.734-1.962-19.734-1.962c-31.138-20.939-50.86-4.142-68.298,23.785c-3.62,5.824-9.395,9.069-15.689,10.16
						c-28.337,3.188-52.694,22.934-57.648,51.392c-0.001-0.001-35.242,14.868-35.242,14.868
						c-9.786-7.093-21.868-13.494-33.188-18.215c-34.065-14.581-74.214-15.866-105.447,5.391
						c-22.476,14.302-41.672,33.11-57.94,54.3c-16.148,21.223-30.208,45.094-40.085,69.856c0,0,0.896-3.199,0.896-3.199
						c-6.657,45.563,8.105,94.175,43.587,124.704c31.717,29.668,76.506,43.01,112.641,13.797c6.41-6.353,15.592-9.249,23.972-7.314
						c10.164,2.663,21.022,4.835,31.482,3.16c15.317-1.474,29.414-12.702,36.059-25.89c0,0,20.278-13.515,20.278-13.515
						c4.581-0.054,11.035-0.658,15.302-1.741c12.065-2.405,19.901-12.262,20.407-22.797c0,0,32.554-19.812,32.554-19.812
						c160.241,85.996,473.552,63.025,609.771-42.119c71.084-60.595,117.495-154.579,110.794-248.675
						c-0.082-1.164-0.204-2.244-0.343-3.277l-0.349-2.693l-0.161-1.235C2525.463,2278.34,2566.187,2271.947,2571.848,2299.995
						L2571.848,2299.995z"/>
				</g>
				<g>
					<path style="fill:#000069;" d="M1798.072,2645.716c-3.818,0-7.686-1.001-11.211-3.106
						c-39.99-23.896-109.6-100.29-86.811-218.391c2.3-11.917,13.828-19.702,25.737-17.41c11.914,2.3,19.707,13.821,17.407,25.735
						c-22.52,116.692,62.656,170.178,66.294,172.397c10.322,6.301,13.657,19.788,7.402,30.139
						C1812.764,2641.92,1805.513,2645.716,1798.072,2645.716z"/>
				</g>
				<g>
					<path style="fill:#000069;" d="M1731.541,2690.9c-29.167-16.662-50.866-44.285-64.944-74.182
						c-8.753-19.399-14.107-40.634-16.633-61.658c-1.911-12.762,16.488-17.152,20.551-4.953
						c5.223,18.247,12.415,36.121,22.84,52.026c14.004,20.592,33.016,39.322,56.025,48.613
						C1775.528,2663.316,1758.465,2701.882,1731.541,2690.9L1731.541,2690.9z"/>
				</g>
				<g>
					<path style="fill:#000069;" d="M1636.658,2725.872c-23.987-14.583-42.14-37.461-55.833-61.329
						c-12.629-23.022-20.505-47.709-25.058-73.335c-1.358-6.473,2.79-12.821,9.265-14.177c14.704-2.61,15.399,15.418,19.912,24.932
						c10.336,25.728,25.791,50.082,46.685,68.168c7.393,6.382,15.704,12.561,24.35,16.278
						C1681.646,2699.947,1663.152,2737.845,1636.658,2725.872L1636.658,2725.872z"/>
				</g>
				<g>
					<path style="fill:#000069;" d="M1817.268,2368.542c-22.007,36.865-23.054,83.971-17.523,126.026
						c1.776,10.57-13.51,14.34-16.786,4.14c-15.62-46.439-22.227-98.279-6.419-145.787
						C1786.231,2320.881,1831.851,2338.499,1817.268,2368.542L1817.268,2368.542z"/>
				</g>
				<g>
					<path style="fill:#000069;" d="M1910.674,2344.15c-5.374,2.767-10.894,9.524-14.956,14.879
						c-15.243,21.653-17.629,50.247-13.486,76.061c-0.001,0,3.378,16.067,3.378,16.067c1.012,3.43-1.052,7.099-4.597,7.821
						c-2.82,0.593-5.598-0.868-6.78-3.364c-2.498-5.277-5.09-10.581-7.542-16.002c-12.764-30.741-16.355-65.494-3.962-97.344
						c4.954-11.86,10.992-23.164,20.368-32.327C1906.257,2292.424,1932.728,2325.216,1910.674,2344.15L1910.674,2344.15z"/>
				</g>
			</g>
			<g>
				<path style="fill:#000069;" d="M1672.061,2424.362c-45.135-54.303-80.267-116.282-106.473-181.624
					c-8.81-21.518-15.805-43.724-22.331-65.948c-1.643-5.597,1.563-11.467,7.161-13.112c5.434-1.605,11.123,1.403,12.954,6.655
					c8.096,20.892,16.555,41.588,26.726,61.49c19.729,39.898,43.694,77.771,70.879,112.898
					c13.337,17.126,27.79,34.388,43.101,49.523C1724.912,2416.117,1692.734,2446.553,1672.061,2424.362L1672.061,2424.362z"/>
			</g>
			<g>
				<g>
					<path style="fill:#D6D6E5;" d="M1963.989,2327.046l1513.667-690.181c0,0-109.458,280.659-353.09,411.326
						c-243.632,130.667-1087.794,477.876-1087.794,477.876L1963.989,2327.046z"/>
				</g>
				<g style="opacity:0.6;">
					<path style="fill:#FFFFFF;" d="M3443.626,1708.196L1983.99,2373.724l55.364,151.319c-1.702,0.659-2.582,1.044-2.582,1.044
						l-72.776-199.049l1513.682-690.19C3477.679,1636.848,3466.584,1665.244,3443.626,1708.196z"/>
				</g>
				<g>
					<path style="fill:#FFFFFF;" d="M3477.632,1636.857c0,0-109.41,280.667-353.059,411.334
						c-243.647,130.667-1087.792,477.849-1087.792,477.849l-32.736-89.473c246.724-102.161,961.959-400.569,1162.546-508.112
						c133.578-71.622,226.84-188.338,283.798-279.185L3477.632,1636.857z"/>
				</g>
				<g>
					<path style="fill:#000069;" d="M2036.773,2548.038c-3.018,0-6.04-0.623-8.858-1.865c-5.469-2.41-9.722-6.946-11.777-12.559
						l-72.783-199.021c-3.94-10.779,1.079-22.776,11.518-27.537l1513.667-690.183c8.13-3.711,17.71-2.117,24.209,4.026
						c6.499,6.145,8.623,15.615,5.376,23.948c-4.59,11.768-115.254,289.736-363.174,422.705
						c-241.826,129.698-1081.367,475.359-1089.819,478.833C2042.452,2547.489,2039.61,2548.038,2036.773,2548.038z M1991.607,2338.6
						l57.94,158.43c132.295-54.685,846.221-351.057,1064.634-468.198c170.508-91.448,274.404-261.333,318.413-347.275
						L1991.607,2338.6z"/>
				</g>
				<g>
					
						<rect x="2005.011" y="2178.777" transform="matrix(0.9403 -0.3402 0.3402 0.9403 -705.6041 840.1382)" style="fill:#7F7F93;" width="75.529" height="506.515"/>
				</g>
				<g>
					<path style="fill:#000069;" d="M2093.433,2705.001c-3.193,0-6.377-0.696-9.321-2.075c-5.278-2.473-9.355-6.941-11.338-12.419
						l-172.339-476.294c-1.983-5.479-1.709-11.521,0.767-16.8c2.471-5.276,6.938-9.353,12.417-11.335l71.025-25.698
						c11.421-4.131,24.004,1.775,28.135,13.184l172.334,476.294c4.126,11.411-1.772,24.006-13.184,28.135l-71.021,25.698
						C2098.487,2704.566,2095.958,2705.001,2093.433,2705.001z M1949.229,2219.92l157.388,434.975l29.702-10.747l-157.383-434.976
						L1949.229,2219.92z"/>
				</g>
			</g>
			<g>
				<path style="fill:#000069;" d="M1366.311,3096.373c45.988-2.225,92.266,4.672,135.359,20.604
					c14.209,5.043,27.681,12.044,40.693,19.325c3.486,1.949,4.729,6.355,2.781,9.84c-1.821,3.267-5.786,4.525-9.126,3.142
					c-51.721-19.133-109.312-20.899-162.898-9.502C1341.665,3146.448,1334.253,3099.71,1366.311,3096.373L1366.311,3096.373z"/>
			</g>
			<g>
				<path style="fill:#000069;" d="M2611.499,3139.427c-55.177-14.525-114.756-7.303-168.059,11.879
					c-11.149,4.303-18.394-11.498-7.739-17.026c52.682-27.979,112.822-43.177,172.749-39.124c6.071,0.378,12.545,1.288,18.635,2.585
					c12.229,2.38,20.215,14.224,17.834,26.454C2642.291,3139.192,2624.49,3147.207,2611.499,3139.427L2611.499,3139.427z"/>
			</g>
			<g>
				<g>
					<path style="fill:#FFFFFF;" d="M1356.745,1324.708c-4.229,3.021-8.458,5.987-12.742,8.788
						c-144.618,95.899-327.519,74.479-400.24,60.637c-19.114-3.68-32.68-20.652-32.35-40.095
						c0.933-51.52,9.777-86.452,20.487-109.905c4.723-10.381,9.777-18.51,14.664-24.881c11.315-14.665,31.198-19.553,48.115-11.974
						c124.406,55.859,225.468,69.316,286.984,71.018c19.994,0.549,35.811-0.11,46.906-0.989c12.303-0.934,18.785-2.142,18.785-2.142
						L1356.745,1324.708z"/>
				</g>
				<g style="opacity:0.2;">
					<path style="fill:#000069;" d="M1344.003,1333.497c-144.618,95.899-327.519,74.479-400.24,60.637
						c-19.114-3.68-32.68-20.652-32.35-40.095c0.933-51.52,9.777-86.452,20.487-109.905c21.97,32.351,64.372,73.435,140.444,80.575
						c82.881,7.8,162.962-23.343,209.319-46.411c25.541-12.688,40.865-22.959,40.865-22.959l6.042,21.97L1344.003,1333.497z"/>
				</g>
				<g>
					<path style="fill:#FFFFFF;" d="M1347.353,1379.963c-53.388,216.79-229.752,320.818-284.787,348.555
						c-10.546,5.328-23.123,5.218-33.67-0.22c-72.336-37.349-87.715-94.856-89.253-132.04c-0.109-1.593-0.164-3.13-0.164-4.668
						c-0.22-17.466,12.138-32.79,29.275-36.306c226.346-46.631,357.398-253.48,357.398-253.48l14.665,54.156L1347.353,1379.963z"/>
				</g>
				<g style="opacity:0.2;">
					<path style="fill:#000069;" d="M1347.353,1379.963c-53.388,216.79-229.752,320.818-284.787,348.555
						c-10.546,5.328-23.123,5.218-33.67-0.22c-72.336-37.349-87.715-94.856-89.253-132.04
						c273.802,57.122,382.06-186.086,401.173-240.297L1347.353,1379.963z"/>
				</g>
				<g>
					<path style="fill:#000069;" d="M1073.922,1428.309c-56.274,0.002-104.16-6.882-134.263-12.612
						c-29.644-5.645-50.747-31.755-50.185-62.083c1.196-65.403,14.56-115.122,39.712-147.771
						c17.539-22.766,48.159-30.42,74.463-18.606c199.878,89.753,338.428,66.575,339.795,66.333
						c11.851-2.097,23.232,5.696,25.483,17.517l9.419,49.526c1.592,8.372-1.802,16.909-8.706,21.904
						C1275.406,1410.682,1163.946,1428.307,1073.922,1428.309z M978.15,1225.704c-5.43,0-10.689,2.451-14.155,6.953
						c-13.252,17.202-29.316,52.29-30.586,121.768c-0.166,8.867,5.918,16.479,14.468,18.108
						c70.708,13.462,246.88,33.987,384.639-57.722l-2.939-15.459c-48.765,3.811-175.391,3.65-343.926-72.031
						C983.218,1226.229,980.665,1225.704,978.15,1225.704z"/>
				</g>
				<g>
					<path style="fill:#000069;" d="M1045.982,1754.422c-9.331,0-18.672-2.197-27.173-6.587
						c-86.987-44.932-100.806-117-101.299-155.962c-0.352-28.02,19.326-52.461,46.787-58.118
						c214.19-44.128,342.046-241.721,343.315-243.713c4.663-7.344,13.242-11.265,21.841-9.934c8.608,1.309,15.63,7.564,17.91,15.962
						l21.187,78.149c0.972,3.599,1.016,7.385,0.127,11.003c-55.747,226.331-240.811,335.007-296.201,362.925
						C1064.176,1752.332,1055.079,1754.422,1045.982,1754.422z M1316.944,1351.8c-50.776,64.063-169.292,189.046-343.779,224.993
						c-6.768,1.394-11.807,7.639-11.719,14.526c0.454,35.554,14.268,84.8,77.529,117.476c4.316,2.224,9.448,2.273,13.726,0.115
						c50.708-25.557,219.058-124.331,271.934-328.743L1316.944,1351.8z"/>
				</g>
				<g>
					<path style="fill:#7F7F93;" d="M2762.828,872.62c0.329,191.689-54.925,441.159-54.925,441.159l-459.009-462.524
						c0,0,39.052-31.637,95.404-69.81c108.807-73.819,282.206-171.971,363.605-113.805
						C2748.823,696.914,2762.664,777.654,2762.828,872.62z"/>
				</g>
				<g style="opacity:0.2;">
					<path style="fill:#000069;" d="M2762.828,872.62c0.329,191.689-54.925,441.159-54.925,441.159l-459.009-462.524
						c0,0,39.052-31.637,95.404-69.81c69.81,58.55,189.437,144.948,287.479,144.948
						C2676.321,926.391,2721.47,903.982,2762.828,872.62z"/>
				</g>
				<g>
					<path style="fill:#7F7F93;" d="M1814.327,851.239c0,0-335.436-271.879-459.017-183.607s0,646.155,0,646.155L1814.327,851.239z"
						/>
				</g>
				<g style="opacity:0.2;">
					<path style="fill:#000069;" d="M1300.389,869.601c-0.329,191.689,54.925,441.159,54.925,441.159l459.009-462.524
						c0,0-39.052-31.637-95.404-69.81c-69.81,58.55-189.437,144.948-287.479,144.948
						C1386.896,923.373,1341.747,900.964,1300.389,869.601z"/>
				</g>
				<g style="opacity:0.6;">
					<path style="fill:#FFFFFF;" d="M2762.334,907.113c-2.746-82.498-17.631-150.495-54.431-176.804
						c-99.084-70.799-334.384,90.022-423.748,156.482l-35.261-35.536c0,0,335.427-271.879,459.009-183.615
						C2753.711,700.375,2765.575,797.647,2762.334,907.113z"/>
				</g>
				<g style="opacity:0.6;">
					<path style="fill:#FFFFFF;" d="M1814.326,851.254l-35.261,35.536c-89.363-66.459-324.662-227.28-423.748-156.482
						c-36.799,26.309-51.685,94.306-54.431,176.804c-3.24-109.466,8.624-206.738,54.431-239.474
						C1478.898,579.375,1814.326,851.254,1814.326,851.254z"/>
				</g>
				<g>
					<path style="fill:#000069;" d="M2707.921,1335.758c-5.771,0-11.411-2.278-15.596-6.494l-459.019-462.549
						c-4.375-4.409-6.68-10.461-6.343-16.663c0.337-6.201,3.281-11.97,8.105-15.881c3.481-2.82,86.377-69.739,186.069-126.897
						c139.907-80.21,240.688-99.561,299.551-57.52c58.965,42.117,77.095,165.208,55.43,376.301
						c-15.4,150.034-46.436,291.077-46.748,292.483c-1.738,7.847-7.622,14.119-15.342,16.353
						C2712.017,1335.474,2709.962,1335.758,2707.921,1335.758z M2281.934,853.336l412.915,416.091
						c42.974-212.461,76.768-529.299,0.303-583.916c-42.344-30.254-131.758-9.072-251.733,59.639
						C2374.298,784.737,2312.095,830.316,2281.934,853.336z"/>
				</g>
				<g>
					<path style="fill:#000069;" d="M1355.308,1335.758c-2.041,0-4.097-0.283-6.108-0.867c-7.72-2.234-13.604-8.506-15.342-16.353
						c-0.313-1.406-31.348-142.449-46.748-292.483c-21.665-211.094-3.535-334.185,55.43-376.301
						c58.862-42.043,159.653-22.688,299.551,57.52c99.693,57.158,182.588,124.077,186.069,126.897
						c4.824,3.911,7.768,9.68,8.105,15.881c0.337,6.201-1.968,12.253-6.343,16.663l-459.019,462.549
						C1366.719,1333.48,1361.08,1335.758,1355.308,1335.758z M1417.935,672.061c-20.498,0-37.256,4.448-49.858,13.45
						c-76.465,54.617-42.671,371.455,0.303,583.916l412.915-416.091c-30.161-23.02-92.363-68.599-161.484-108.186
						C1535.528,696.876,1466.329,672.061,1417.935,672.061z"/>
				</g>
				<g>
					<path style="fill:#7F7F93;" d="M2023.709,2048.191c-857.765,0-812.727-431.931-723.749-723.474
						c13.841-45.423,28.781-87.441,41.524-123.911c6.042-17.302,12.633-34.164,19.718-50.586c0.055,0,0.055,0,0.055,0
						c113.256-261.718,359.375-410.181,662.452-410.181s549.196,148.463,662.452,410.181c7.14,16.423,13.731,33.285,19.773,50.586
						c11.7,33.504,25.266,71.732,38.173,112.981C2835.118,1605.329,2892.24,2048.191,2023.709,2048.191z"/>
				</g>
				<g style="opacity:0.6;">
					<path style="fill:#FFFFFF;" d="M2792.115,1617.126c-4.559-82.607-25.21-165.05-48.005-238.046
						c-12.907-41.249-26.474-79.476-38.173-112.981c-6.042-17.301-12.633-34.163-19.773-50.586
						c-113.256-261.718-359.375-410.181-662.452-410.181c-30.814,0-61.077,1.538-90.626,4.614
						c-0.385,24.332-38.997,56.353-92.495,75.083c-59.099,20.707-114.135,17.356-122.812-7.525
						c-1.538-4.449-1.538-9.227-0.11-14.225c-159.338,65.855-284.567,186.251-356.41,352.235c0,0,0,0-0.055,0
						c-7.085,16.423-13.676,33.285-19.717,50.586c-12.743,36.47-27.682,78.488-41.524,123.911
						c-21.366,70.084-40.26,148.298-44.654,226.676c-5.877-99.524,17.302-202.399,44.654-291.982
						c13.841-45.423,28.781-87.441,41.524-123.911c6.041-17.302,12.632-34.164,19.717-50.586c0.055,0,0.055,0,0.055,0
						c113.256-261.719,359.375-410.181,662.453-410.181c303.077,0,549.196,148.462,662.452,410.181
						c7.14,16.422,13.731,33.285,19.773,50.586c11.699,33.504,25.265,71.732,38.173,112.981
						C2772.891,1405.994,2798.322,1513.427,2792.115,1617.126z"/>
				</g>
				<g style="opacity:0.2;">
					<path style="fill:#000069;" d="M2023.701,2048.183c-710.402,0-801.578-296.266-761.373-563.697
						c37.624,200.642,219.042,373.326,761.373,373.326c542.276,0,723.694-172.63,761.372-373.326
						C2825.223,1751.916,2734.103,2048.183,2023.701,2048.183z"/>
				</g>
				<g>
					<path style="fill:#000069;" d="M2023.707,2070.162c-360.679,0-600.913-77.473-714.033-230.269
						c-120.537-162.815-75.264-375.657-30.723-521.589c12.578-41.306,26.04-79.744,37.915-113.66l3.877-11.086
						c6.104-17.473,12.93-34.985,20.288-52.041c0.2-0.469,0.42-0.928,0.649-1.374c57.143-131.326,149.824-239.143,268.11-311.873
						c117.251-72.092,260.381-110.2,413.916-110.2s296.665,38.108,413.921,110.2c118.691,72.979,211.606,181.289,268.696,313.225
						c7.314,16.824,14.165,34.353,20.352,52.07l3.989,11.414c10.708,30.593,22.842,65.266,34.409,102.249
						c46.616,149.326,94.565,366.892-26.641,531.704C2625.596,1992.364,2385.128,2070.162,2023.707,2070.162z M1380.806,1160.238
						c-6.729,15.684-12.979,31.76-18.579,47.81l-3.892,11.118c-11.733,33.516-25.034,71.501-37.358,111.953
						c-41.768,136.853-84.717,335.764,24.014,482.629c104.375,140.986,332.73,212.473,678.716,212.473
						c346.67,0,575.229-71.772,679.326-213.323c109.404-148.762,63.867-352.361,20.103-492.563
						c-11.348-36.27-23.35-70.576-33.945-100.845l-3.999-11.441c-5.83-16.699-12.28-33.208-19.175-49.07
						c-109.18-252.293-343.286-396.97-642.31-396.97c-299.019,0-533.125,144.678-642.29,396.936
						C1381.226,1159.386,1381.026,1159.815,1380.806,1160.238z"/>
				</g>
				<g>
					<path style="fill:#FFD07D;" d="M2610.584,1571.551c-127.097,137.697-396.998-45.917-586.875-45.917
						c-43.116,0-90.407,9.502-139.181,22.519h-0.054c-165.929,44.325-349.434,129.788-447.695,23.398
						c-127.097-137.697,56.518-386.893,56.518-386.893c112.542-23.453,232.608-35.372,329.991-41.414
						c116.441-7.195,200.422-5.987,200.422-5.987s283.249-4.064,530.412,47.401
						C2554.122,1184.658,2737.736,1433.853,2610.584,1571.551z"/>
				</g>
				<g>
					<path style="fill:#D69967;" d="M1934.566,1379.972c0,62.065-18.401,119.847-50.037,168.181h-0.054
						c-165.929,44.325-349.434,129.788-447.695,23.398c-127.097-137.697,56.518-386.893,56.518-386.893
						c112.542-23.453,232.608-35.372,329.991-41.414C1891.285,1199.652,1934.566,1284.786,1934.566,1379.972z"/>
				</g>
				<g style="opacity:0.2;">
					<path style="fill:#000069;" d="M2644.63,1515.354c-0.261-0.999-0.527-1.996-0.796-2.992
						c-30.309-112.222-126.299-194.49-241.625-209.062c-198.339-25.062-378.508-22.476-378.508-22.476s-83.981-1.208-200.422,5.987
						c-53.87,3.342-114.681,8.483-177.32,16.379c-115.598,14.573-211.939,96.678-242.356,209.151
						c-0.281,1.04-0.558,2.081-0.831,3.124c-50.147-139.949,90.517-330.814,90.517-330.814
						c112.542-23.453,232.608-35.372,329.991-41.413c116.441-7.195,200.422-5.987,200.422-5.987s283.249-4.065,530.412,47.4
						C2554.113,1184.649,2694.666,1375.405,2644.63,1515.354z"/>
				</g>
				<g>
					<path style="fill:#000069;" d="M2479.737,1644.73c-72.139,0-153.73-24.922-233.809-49.382
						c-76.851-23.472-156.318-47.744-222.222-47.744c-35.425,0-77.847,6.919-133.516,21.777c-0.244,0.066-0.493,0.127-0.742,0.183
						c-28.857,7.727-58.906,16.904-87.974,25.781c-142.896,43.642-290.649,88.757-380.835-8.887
						c-137.822-149.316,47.031-404.06,54.971-414.831c3.208-4.356,7.91-7.373,13.203-8.477c95.976-20,208.052-34.077,333.11-41.833
						c112.412-6.946,195.991-6.099,201.787-6.033c11.074-0.122,291.9-2.73,534.888,47.866c5.298,1.104,10,4.121,13.208,8.477
						c7.939,10.771,192.793,265.518,54.917,414.829C2587.1,1629.386,2536.324,1644.73,2479.737,1644.73z M2023.707,1503.663
						c72.461,0,155.122,25.247,235.059,49.661c135.889,41.509,264.243,80.713,335.674,3.325v-0.003
						c102.661-111.172-26.353-312.873-53.281-352.222c-239.893-48.54-514.351-45.232-517.139-45.2c-0.21,0.005-0.425,0.005-0.625,0
						c-0.84-0.007-84.6-1.106-198.75,5.95c-119.282,7.397-226.328,20.596-318.369,39.248
						c-26.87,39.336-155.786,241.248-53.354,352.227c71.46,77.368,199.829,38.171,335.718-3.328
						c29.668-9.06,60.347-18.428,90.166-26.394c0.254-0.068,0.508-0.132,0.762-0.19
						C1938.692,1510.997,1984.507,1503.663,2023.707,1503.663z"/>
				</g>
				<g>
					<g>
						<ellipse style="fill:#000069;" cx="1679.771" cy="1471.766" rx="86.439" ry="91.797"/>
					</g>
					<g>
						
							<ellipse transform="matrix(0.1119 -0.9937 0.9937 0.1119 55.0713 3002.4653)" style="fill:#FFFFFF;" cx="1707.324" cy="1470.422" rx="39.632" ry="30.416"/>
					</g>
					<g style="opacity:0.35;">
						
							<ellipse transform="matrix(0.9596 -0.2814 0.2814 0.9596 -357.3686 522.3588)" style="fill:#FFFFFF;" cx="1640.162" cy="1505.532" rx="19.032" ry="31.411"/>
					</g>
					<g>
						<path style="fill:#000069;" d="M1824.84,1481.39c-3.281,0-6.606-0.737-9.746-2.29l-229.507-113.779
							c-10.869-5.391-15.313-18.572-9.922-29.443c5.391-10.872,18.569-15.31,29.443-9.927l229.507,113.779
							c10.869,5.391,15.313,18.572,9.922,29.443C1840.704,1476.908,1832.926,1481.39,1824.84,1481.39z"/>
					</g>
				</g>
				<g>
					<g>
						<ellipse style="fill:#000069;" cx="2364.297" cy="1471.766" rx="86.439" ry="91.797"/>
					</g>
					<g>
						
							<ellipse transform="matrix(0.9937 -0.1119 0.1119 0.9937 -149.8764 270.7419)" style="fill:#FFFFFF;" cx="2336.743" cy="1470.422" rx="30.416" ry="39.632"/>
					</g>
					<g style="opacity:0.35;">
						
							<ellipse transform="matrix(0.2814 -0.9596 0.9596 0.2814 282.7719 3388.6628)" style="fill:#FFFFFF;" cx="2403.905" cy="1505.532" rx="31.411" ry="19.032"/>
					</g>
					<g>
						<path style="fill:#000069;" d="M2219.229,1481.39c-8.086,0-15.864-4.48-19.697-12.217
							c-5.391-10.872-0.947-24.053,9.922-29.443l229.507-113.779c10.879-5.378,24.058-0.945,29.443,9.927
							c5.391,10.872,0.947,24.053-9.922,29.443L2228.975,1479.1C2225.836,1480.653,2222.51,1481.39,2219.229,1481.39z"/>
					</g>
				</g>
				<g>
					<path style="fill:#000069;" d="M2022.032,1710.052c-56.372,0-100.527-32.148-100.527-73.188c0-12.134,9.834-21.97,21.968-21.97
						s21.968,9.836,21.968,21.97c0,13.806,24.204,29.248,56.592,29.248c32.393,0,56.597-15.442,56.597-29.248
						c0-12.134,9.834-21.97,21.968-21.97s21.968,9.836,21.968,21.97C2122.564,1677.904,2078.404,1710.052,2022.032,1710.052z"/>
				</g>
				<g>
					<path style="fill:#FFFFFF;" d="M2744.107,1313.787c0,0-885.393-161.7-1444.146,10.93
						c13.841-45.423,28.781-87.441,41.524-123.911c6.042-17.302,12.633-34.164,19.718-50.586c0.055,0,0.055,0,0.055,0
						s664.1-237.661,1324.904,0c7.14,16.423,13.731,33.285,19.773,50.586C2717.634,1234.31,2731.2,1272.538,2744.107,1313.787z"/>
				</g>
				<g style="opacity:0.2;">
					<path style="fill:#000069;" d="M2744.099,1313.778c0,0-885.393-161.7-1444.146,10.93c7.36-24.222,15.049-47.455,22.574-69.37
						c506.959-146.431,1261.85-31.033,1399.602-8.019C2729.379,1268.301,2736.849,1290.545,2744.099,1313.778z"/>
				</g>
				<g>
					<path style="fill:#000069;" d="M1299.962,1346.688c-5.723,0-11.323-2.241-15.503-6.404c-5.762-5.74-7.881-14.189-5.513-21.968
						c12.588-41.318,26.045-79.756,37.92-113.672l3.877-11.086c6.104-17.473,12.93-34.985,20.288-52.041
						c2.588-5.998,7.646-10.42,13.682-12.288c14.678-5.178,176.855-61.062,418.589-89.946
						c229.204-27.393,574.912-33.955,920.298,90.264c5.698,2.051,10.298,6.36,12.71,11.914c7.329,16.858,14.18,34.387,20.366,52.104
						l3.989,11.414c10.708,30.593,22.842,65.266,34.409,102.249c2.3,7.341,0.586,15.351-4.507,21.113
						c-5.103,5.759-12.856,8.44-20.405,7.061c-8.804-1.611-886.611-158.723-1433.716,10.307
						C1304.317,1346.368,1302.13,1346.688,1299.962,1346.688z M1377.579,1167.882c-5.503,13.242-10.654,26.714-15.352,40.166
						l-3.892,11.118c-7.876,22.505-16.465,47.024-24.985,72.952c285.903-78.364,644.146-76.062,899.634-59.524
						c221.445,14.331,404.521,41.423,479.092,53.503c-7.847-23.633-15.693-46.052-22.886-66.606l-3.999-11.441
						c-4.771-13.664-9.956-27.202-15.464-40.361c-333.872-117.835-667.813-111.348-889.995-84.922
						C1568.067,1107.948,1415.137,1155.462,1377.579,1167.882z"/>
				</g>
			</g>
			<g>
				<path style="fill:#000069;" d="M1740.46,2309.085c-5.679,0-11.357-2.19-15.654-6.558c-8.516-8.645-8.403-22.556,0.239-31.069
					l115.342-113.554c8.652-8.506,22.559-8.406,31.069,0.244c8.516,8.645,8.403,22.556-0.239,31.069l-115.342,113.555
					C1751.593,2306.983,1746.026,2309.085,1740.46,2309.085z"/>
			</g>
		</g>
		<g style="opacity:0.2;">
			<path style="fill:#000069;" d="M1676.19,2390.201c0,0-127.921-50.147-222.777,154.01
				c-27.792-25.65-139.839-141.762-97.437-312.414c6.701-26.968,18.4-53.826,34.493-79.916
				c0.714,98.096,33.45,253.479,245.241,189.931L1676.19,2390.201z"/>
		</g>
	</g>
</g>
</svg>
